<svg width="500" height="703" viewBox="0 0 500 703" fill="none" xmlns="http://www.w3.org/2000/svg">
<g clip-path="url(#clip0_42_272)">
<path d="M462.863 484.814C462.215 485.253 461.478 486.173 460.711 487.513C459.948 488.846 459.166 490.577 458.418 492.621C456.921 496.709 455.57 502.029 454.799 507.882C453.25 519.59 454.014 533.399 460.477 543.716C463.541 548.604 466.005 553.567 468.206 558.172C468.623 559.043 469.028 559.899 469.427 560.741C471.139 564.36 472.714 567.692 474.334 570.518C476.333 574.002 478.377 576.687 480.797 578.187C483.202 579.676 485.99 580.011 489.512 578.749C491.564 577.342 493.63 574.646 495.35 571.028C497.078 567.401 498.455 562.863 499.136 557.811C500.503 547.703 499.092 535.547 492.163 524.49C488.448 518.559 485.104 512.919 482.092 507.841L481.932 507.569C478.879 502.42 476.173 497.863 473.772 494.177C471.363 490.484 469.27 487.684 467.446 486.039C466.53 485.216 465.696 484.691 464.937 484.482C464.185 484.278 463.5 484.378 462.863 484.814Z" fill="white" stroke="#BBBBBB"/>
<path d="M158.931 140.007C166.159 199.175 222.715 233.631 252.957 228.754C271.118 201.063 261.011 157.508 223.362 105.424C214.854 52.7613 165.162 -5.04621 147.001 22.6445C128.841 50.3351 120.107 99.1735 158.931 140.007Z" fill="#4CAB4A"/>
<path d="M326.616 135.841C320.408 202.509 287.075 230.356 259.268 230.356C225.984 230.356 233.687 152.716 259.268 101.465C253.512 35.839 294.055 -9.3326 320.408 1.74125C346.761 12.8151 355.94 76.6731 326.616 135.841Z" fill="#4CAB4A"/>
<path d="M34.9726 489.583C35.6559 489.944 36.4536 490.759 37.3029 491.973C38.1487 493.183 39.0333 494.773 39.8967 496.668C41.623 500.454 43.2589 505.443 44.3308 510.998C46.4764 522.111 46.358 535.45 40.2366 545.979C37.3375 550.964 35.0508 555.964 33.0204 560.603C32.6373 561.478 32.2635 562.338 31.8965 563.183C30.3165 566.824 28.8625 570.175 27.3406 573.045C25.4644 576.579 23.4985 579.356 21.094 581.024C18.7068 582.681 15.8689 583.265 12.2067 582.383C10.0386 581.225 7.7987 578.827 5.86228 575.51C3.92185 572.185 2.29519 567.956 1.35416 563.161C-0.527868 553.574 0.334933 541.757 6.8949 530.477C10.4133 524.423 13.5643 518.689 16.4008 513.526L16.5528 513.25C19.4294 508.012 21.9797 503.377 24.2627 499.609C26.5478 495.834 28.5561 492.945 30.3463 491.191C31.2413 490.313 32.0693 489.732 32.8374 489.46C33.597 489.192 34.301 489.226 34.9726 489.583Z" fill="white" stroke="#BBBBBB"/>
<path d="M110.598 683.682C110.728 686.158 111.979 688.515 114.159 690.663C116.342 692.807 119.446 694.736 123.256 696.34C130.876 699.55 141.285 701.463 152.674 701.307C154.305 701.284 155.886 701.27 157.416 701.258C161.239 701.225 164.747 701.195 167.954 701.039C172.443 700.815 176.325 700.339 179.634 699.252C182.939 698.168 185.671 696.474 187.862 693.812C190.056 691.15 191.717 687.506 192.86 682.509C193.447 679.948 192.566 677.558 190.532 675.406C188.492 673.246 185.302 671.333 181.306 669.754C173.317 666.593 162.172 664.78 150.781 664.937C139.392 665.093 129.197 667.286 121.922 670.7C118.284 672.405 115.384 674.412 113.429 676.616C111.474 678.82 110.47 681.206 110.598 683.682Z" fill="white" stroke="#BBBBBB"/>
<path d="M387.934 684.799C387.688 689.758 383.109 694.24 375.771 697.457C368.45 700.666 358.448 702.58 347.503 702.424C345.935 702.401 344.416 702.386 342.946 702.375C339.271 702.342 335.9 702.312 332.818 702.156C328.505 701.932 324.775 701.456 321.596 700.369C318.422 699.285 315.797 697.591 313.691 694.933C311.583 692.267 309.987 688.626 308.888 683.63C308.323 681.065 309.172 678.675 311.126 676.519C313.086 674.363 316.151 672.45 319.99 670.871C327.666 667.71 338.376 665.897 349.323 666.054C360.267 666.21 370.064 668.403 377.055 671.813C384.058 675.235 388.183 679.844 387.934 684.799Z" fill="white" stroke="#BBBBBB"/>
<path d="M464.829 452.751C477.461 546.325 453.127 603.864 411.017 638.019C368.893 672.185 308.939 682.986 250.264 682.986C179.767 682.986 119.527 664.434 80.215 626.396C40.9097 588.362 22.4932 530.819 35.6989 452.755C55.1904 337.536 81.7321 279.987 116.92 251.228C152.105 222.472 195.972 222.464 250.264 222.464C252.641 222.464 255.009 222.461 257.371 222.457C303.402 222.387 346.43 222.322 382.066 248.959C419.531 276.96 448.868 334.505 464.829 452.751Z" fill="url(#paint0_linear_42_272)" stroke="#BBBBBB"/>
<path d="M177.587 471.333C185.812 471.333 192.479 462.999 192.479 452.718C192.479 442.437 185.812 434.103 177.587 434.103C169.363 434.103 162.695 442.437 162.695 452.718C162.695 462.999 169.363 471.333 177.587 471.333Z" fill="black"/>
<path d="M183.172 450.112C186.256 450.112 188.756 447.611 188.756 444.527C188.756 441.443 186.256 438.943 183.172 438.943C180.088 438.943 177.587 441.443 177.587 444.527C177.587 447.611 180.088 450.112 183.172 450.112Z" fill="white"/>
<path d="M322.413 471.333C330.637 471.333 337.305 462.999 337.305 452.718C337.305 442.437 330.637 434.103 322.413 434.103C314.188 434.103 307.521 442.437 307.521 452.718C307.521 462.999 314.188 471.333 322.413 471.333Z" fill="black"/>
<path d="M327.997 450.112C331.081 450.112 333.582 447.611 333.582 444.527C333.582 441.443 331.081 438.943 327.997 438.943C324.913 438.943 322.413 441.443 322.413 444.527C322.413 447.611 324.913 450.112 327.997 450.112Z" fill="white"/>
<path d="M286.299 488.63C286.299 492.547 267.87 505.823 251.252 498.31C233.991 505.823 213.328 492.547 213.328 488.63C213.328 482.063 231.943 503.328 251.252 492.234C270.104 502.211 286.299 482.666 286.299 488.63Z" fill="black"/>
<path d="M121.743 500.745C152.585 500.745 177.588 492.41 177.588 482.13C177.588 471.849 152.585 463.514 121.743 463.514C90.9002 463.514 65.8975 471.849 65.8975 482.13C65.8975 492.41 90.9002 500.745 121.743 500.745Z" fill="#FF9595" fill-opacity="0.15"/>
<path d="M383.842 500.745C414.685 500.745 439.687 492.41 439.687 482.13C439.687 471.849 414.685 463.514 383.842 463.514C353 463.514 327.997 471.849 327.997 482.13C327.997 492.41 353 500.745 383.842 500.745Z" fill="#FF9595" fill-opacity="0.15"/>
<path d="M183.873 105.187L246.42 222.834" stroke="white" stroke-width="2"/>
<path d="M311.592 50.0193L286.858 129.561L246.439 223.114" stroke="white" stroke-width="2"/>
<path d="M148.768 412.272L175.946 401.168" stroke="black" stroke-width="5"/>
<path d="M324.102 405.267L350.651 419.64" stroke="black" stroke-width="5"/>
<path d="M269.816 169.783L290.665 163.827" stroke="white" stroke-width="2"/>
</g>
<defs>
<linearGradient id="paint0_linear_42_272" x1="250.264" y1="222.278" x2="250.264" y2="683.172" gradientUnits="userSpaceOnUse">
<stop stop-color="#C4FDA9"/>
<stop offset="0.31" stop-color="white"/>
<stop offset="1" stop-color="white"/>
</linearGradient>
<clipPath id="clip0_42_272">
<rect width="500" height="702.904" fill="white"/>
</clipPath>
</defs>
</svg>
