<svg width="500" height="550" viewBox="0 0 500 550" fill="none" xmlns="http://www.w3.org/2000/svg">
<g clip-path="url(#clip0_42_239)">
<path d="M462.863 331.052C462.215 331.494 461.478 332.412 460.711 333.752C459.948 335.086 459.166 336.817 458.418 338.861C456.921 342.947 455.57 348.267 454.799 354.12C453.25 365.832 454.014 379.639 460.477 389.955C463.541 394.844 466.005 399.806 468.206 404.412C468.623 405.283 469.028 406.139 469.427 406.981C471.139 410.599 472.714 413.932 474.334 416.757C476.333 420.242 478.377 422.926 480.797 424.427C483.202 425.916 485.99 426.251 489.512 424.989C491.564 423.582 493.63 420.886 495.35 417.267C497.078 413.641 498.455 409.103 499.136 404.051C500.503 393.943 499.092 381.787 492.163 370.729C488.448 364.798 485.104 359.158 482.092 354.081L481.932 353.809C478.879 348.66 476.173 344.102 473.772 340.415C471.363 336.725 469.27 333.924 467.446 332.277C466.53 331.454 465.696 330.932 464.937 330.723C464.185 330.518 463.5 330.618 462.863 331.052Z" fill="white" stroke="#BBBBBB"/>
<path d="M34.9724 335.822C35.6556 336.185 36.4533 336.998 37.3026 338.213C38.1485 339.424 39.0331 341.014 39.8964 342.908C41.6228 346.696 43.2587 351.683 44.3305 357.236C46.4761 368.349 46.3577 381.69 40.2364 392.219C37.3372 397.204 35.0505 402.204 33.0201 406.843C32.6371 407.718 32.2632 408.578 31.8963 409.423C30.3162 413.064 28.8623 416.415 27.3403 419.285C25.4642 422.818 23.4983 425.596 21.0937 427.264C18.7065 428.92 15.8687 429.505 12.2064 428.622C10.0384 427.465 7.79845 425.067 5.86201 421.75C3.92161 418.425 2.29495 414.196 1.35391 409.401C-0.528113 399.814 0.334691 387.997 6.89466 376.716C10.4131 370.665 13.5641 364.929 16.4005 359.765L16.5526 359.489C19.4291 354.253 21.9794 349.617 24.2625 345.848C26.5476 342.074 28.5559 339.185 30.346 337.43C31.2411 336.553 32.0691 335.972 32.8372 335.701C33.5968 335.432 34.3008 335.465 34.9724 335.822Z" fill="white" stroke="#BBBBBB"/>
<path d="M233.673 28.6109C236.685 40.5042 243.112 42.6724 250.919 44.1616C257.432 40.8567 257.025 29.2558 254.014 17.3624C251.003 5.46905 246.527 -2.21295 240.014 1.09195C233.5 4.39683 230.662 16.7175 233.673 28.6109Z" fill="#4CAB4A"/>
<path d="M253.537 38.7192H246.091V68.5033H253.537V38.7192Z" fill="#4CAB4A"/>
<path d="M272.438 30.9693C265.974 41.4769 256.343 45.4289 249.255 44.0767C240.77 42.4579 246.421 30.4385 252.886 19.9309C259.351 9.42328 266.327 2.75647 272.666 6.02514C279.005 9.29383 278.903 20.4617 272.438 30.9693Z" fill="#4CAB4A"/>
<path d="M110.599 529.922C110.727 532.398 111.979 534.754 114.16 536.903C116.342 539.047 119.446 540.976 123.257 542.58C130.876 545.789 141.285 547.703 152.674 547.547C154.306 547.524 155.886 547.509 157.416 547.498C161.239 547.465 164.747 547.435 167.954 547.279C172.443 547.055 176.325 546.579 179.634 545.492C182.939 544.408 185.671 542.714 187.863 540.052C190.056 537.39 191.717 533.745 192.86 528.749C193.447 526.188 192.566 523.798 190.532 521.646C188.493 519.486 185.302 517.573 181.306 515.994C173.318 512.833 162.172 511.02 150.781 511.177C139.392 511.333 129.197 513.526 121.922 516.94C118.284 518.645 115.384 520.652 113.429 522.856C111.474 525.06 110.47 527.446 110.599 529.922Z" fill="white" stroke="#BBBBBB"/>
<path d="M387.934 531.039C387.688 535.998 383.109 540.48 375.771 543.697C368.45 546.906 358.448 548.82 347.504 548.664C345.935 548.641 344.416 548.626 342.946 548.615C339.271 548.582 335.9 548.552 332.818 548.396C328.505 548.172 324.775 547.696 321.596 546.608C318.422 545.525 315.798 543.831 313.691 541.173C311.583 538.507 309.987 534.866 308.888 529.87C308.323 527.305 309.172 524.915 311.126 522.759C313.086 520.603 316.151 518.69 319.99 517.111C327.666 513.95 338.377 512.137 349.323 512.294C360.267 512.45 370.064 514.643 377.055 518.053C384.058 521.474 388.183 526.084 387.934 531.039Z" fill="white" stroke="#BBBBBB"/>
<path d="M464.829 298.99C477.461 392.565 453.127 450.104 411.016 484.259C368.892 518.425 308.939 529.226 250.264 529.226C179.766 529.226 119.527 510.674 80.2147 472.636C40.9094 434.602 22.493 377.059 35.6986 298.996C55.1902 183.776 81.7319 126.227 116.92 97.4676C152.105 68.7114 195.972 68.704 250.264 68.704C252.64 68.704 255.009 68.7003 257.37 68.6965C303.402 68.6269 346.43 68.5618 382.066 95.1988C419.531 123.2 448.868 180.745 464.829 298.99Z" fill="url(#paint0_linear_42_239)" stroke="#BBBBBB"/>
<path d="M177.588 317.573C185.812 317.573 192.48 309.238 192.48 298.958C192.48 288.677 185.812 280.343 177.588 280.343C169.363 280.343 162.696 288.677 162.696 298.958C162.696 309.238 169.363 317.573 177.588 317.573Z" fill="black"/>
<path d="M183.172 296.351C186.256 296.351 188.756 293.851 188.756 290.767C188.756 287.683 186.256 285.182 183.172 285.182C180.088 285.182 177.587 287.683 177.587 290.767C177.587 293.851 180.088 296.351 183.172 296.351Z" fill="white"/>
<path d="M322.413 317.573C330.637 317.573 337.305 309.238 337.305 298.958C337.305 288.677 330.637 280.343 322.413 280.343C314.188 280.343 307.521 288.677 307.521 298.958C307.521 309.238 314.188 317.573 322.413 317.573Z" fill="black"/>
<path d="M327.997 296.351C331.081 296.351 333.582 293.851 333.582 290.767C333.582 287.683 331.081 285.182 327.997 285.182C324.913 285.182 322.413 287.683 322.413 290.767C322.413 293.851 324.913 296.351 327.997 296.351Z" fill="white"/>
<path d="M286.299 334.868C286.299 338.785 267.87 352.062 251.252 344.548C233.991 352.062 213.328 338.785 213.328 334.868C213.328 328.301 231.943 349.57 251.252 338.473C270.104 348.453 286.299 328.907 286.299 334.868Z" fill="black"/>
<path d="M121.742 346.984C152.585 346.984 177.587 338.65 177.587 328.369C177.587 318.089 152.585 309.754 121.742 309.754C90.8999 309.754 65.8972 318.089 65.8972 328.369C65.8972 338.65 90.8999 346.984 121.742 346.984Z" fill="#FF9595"/>
<path d="M383.842 346.984C414.685 346.984 439.687 338.65 439.687 328.369C439.687 318.089 414.685 309.754 383.842 309.754C353 309.754 327.997 318.089 327.997 328.369C327.997 338.65 353 346.984 383.842 346.984Z" fill="#FF9595"/>
</g>
<defs>
<linearGradient id="paint0_linear_42_239" x1="250.264" y1="68.5178" x2="250.264" y2="529.412" gradientUnits="userSpaceOnUse">
<stop stop-color="#C4FDA9"/>
<stop offset="0.31" stop-color="white"/>
<stop offset="1" stop-color="white"/>
</linearGradient>
<clipPath id="clip0_42_239">
<rect width="500" height="549.144" fill="white"/>
</clipPath>
</defs>
</svg>
