<svg width="500" height="559" viewBox="0 0 500 559" fill="none" xmlns="http://www.w3.org/2000/svg">
<g clip-path="url(#clip0_42_255)">
<path d="M462.863 340.732C462.215 341.173 461.478 342.092 460.711 343.432C459.948 344.765 459.166 346.497 458.418 348.541C456.921 352.627 455.57 357.947 454.799 363.8C453.25 375.51 454.014 389.319 460.477 399.635C463.541 404.523 466.005 409.486 468.206 414.092C468.623 414.963 469.028 415.819 469.427 416.66C471.139 420.279 472.714 423.611 474.334 426.437C476.333 429.922 478.377 432.606 480.797 434.106C483.202 435.596 485.99 435.931 489.512 434.669C491.564 433.261 493.63 430.566 495.35 426.947C497.078 423.321 498.455 418.783 499.136 413.73C500.503 403.622 499.092 391.467 492.163 380.41C488.448 374.479 485.104 368.838 482.092 363.761L481.932 363.488C478.879 358.34 476.173 353.782 473.772 350.095C471.363 346.405 469.27 343.603 467.446 341.957C466.53 341.134 465.696 340.611 464.937 340.403C464.185 340.198 463.5 340.298 462.863 340.732Z" fill="white" stroke="#BBBBBB"/>
<path d="M196.243 61.4081C210.246 84.2606 228.389 86.1627 249.849 86.1627C265.452 76.9818 258.503 53.7167 244.499 30.864C230.495 8.01141 214.74 -5.77471 199.137 3.40615C183.534 12.587 182.238 38.5555 196.243 61.4081Z" fill="#4CAB4A"/>
<path d="M300.247 51.2401C288.417 74.9445 264.875 86.6318 245.391 86.6318C222.068 86.6318 230.976 60.1884 242.806 36.4841C254.636 12.7798 269.766 -3.36698 288.233 0.791066C306.698 4.94911 312.078 27.536 300.247 51.2401Z" fill="#4CAB4A"/>
<path d="M34.9726 345.501C35.6559 345.864 36.4536 346.678 37.3029 347.893C38.1487 349.103 39.0333 350.694 39.8967 352.588C41.623 356.376 43.2589 361.363 44.3308 366.916C46.4764 378.03 46.358 391.37 40.2366 401.899C37.3375 406.884 35.0508 411.884 33.0204 416.523C32.6373 417.398 32.2635 418.258 31.8965 419.103C30.3165 422.744 28.8625 426.094 27.3406 428.965C25.4644 432.498 23.4985 435.275 21.094 436.943C18.7068 438.6 15.8689 439.185 12.2067 438.302C10.0386 437.144 7.7987 434.747 5.86228 431.43C3.92185 428.105 2.29519 423.876 1.35416 419.08C-0.527868 409.494 0.334933 397.677 6.8949 386.396C10.4133 380.342 13.5643 374.609 16.4008 369.445L16.5528 369.169C19.4294 363.933 21.9797 359.297 24.2627 355.528C26.5478 351.754 28.5561 348.864 30.3463 347.11C31.2413 346.233 32.0693 345.652 32.8374 345.38C33.597 345.112 34.301 345.145 34.9726 345.501Z" fill="white" stroke="#BBBBBB"/>
<path d="M110.598 539.602C110.727 542.077 111.979 544.434 114.159 546.582C116.342 548.727 119.446 550.655 123.256 552.26C130.876 555.469 141.285 557.383 152.674 557.226C154.305 557.204 155.886 557.189 157.416 557.178C161.239 557.144 164.747 557.115 167.954 556.958C172.443 556.735 176.325 556.258 179.634 555.171C182.939 554.088 185.671 552.394 187.862 549.732C190.056 547.07 191.717 543.425 192.86 538.429C193.447 535.867 192.566 533.477 190.532 531.325C188.492 529.166 185.302 527.252 181.306 525.674C173.317 522.513 162.172 520.7 150.78 520.856C139.392 521.013 129.197 523.205 121.922 526.619C118.284 528.325 115.384 530.331 113.429 532.535C111.474 534.739 110.47 537.126 110.598 539.602Z" fill="white" stroke="#BBBBBB"/>
<path d="M387.934 540.718C387.688 545.678 383.109 550.16 375.771 553.377C368.45 556.586 358.448 558.5 347.503 558.343C345.935 558.321 344.416 558.306 342.946 558.295C339.271 558.261 335.9 558.232 332.818 558.075C328.505 557.852 324.775 557.375 321.596 556.288C318.422 555.205 315.797 553.511 313.691 550.853C311.583 548.187 309.987 544.546 308.888 539.549C308.323 536.984 309.172 534.594 311.126 532.439C313.086 530.283 316.151 528.369 319.99 526.791C327.666 523.63 338.376 521.817 349.323 521.973C360.267 522.13 370.064 524.322 377.055 527.733C384.058 531.154 388.183 535.763 387.934 540.718Z" fill="white" stroke="#BBBBBB"/>
<path d="M464.829 308.669C477.461 402.245 453.127 459.784 411.017 493.939C368.893 528.105 308.939 538.905 250.264 538.905C179.767 538.905 119.527 520.354 80.215 482.316C40.9097 444.281 22.4932 386.739 35.6989 308.676C55.1904 193.456 81.7321 135.907 116.92 107.147C152.105 78.3913 195.972 78.3838 250.264 78.3838C252.641 78.3838 255.009 78.3801 257.371 78.3764C303.402 78.3068 346.43 78.2416 382.066 104.879C419.531 132.879 448.868 190.425 464.829 308.669Z" fill="url(#paint0_linear_42_255)" stroke="#BBBBBB"/>
<path d="M177.587 327.252C185.812 327.252 192.479 318.918 192.479 308.637C192.479 298.357 185.812 290.022 177.587 290.022C169.363 290.022 162.695 298.357 162.695 308.637C162.695 318.918 169.363 327.252 177.587 327.252Z" fill="black"/>
<path d="M183.172 306.031C186.256 306.031 188.756 303.531 188.756 300.447C188.756 297.362 186.256 294.862 183.172 294.862C180.088 294.862 177.587 297.362 177.587 300.447C177.587 303.531 180.088 306.031 183.172 306.031Z" fill="white"/>
<path d="M322.413 327.252C330.637 327.252 337.305 318.918 337.305 308.637C337.305 298.357 330.637 290.022 322.413 290.022C314.188 290.022 307.521 298.357 307.521 308.637C307.521 318.918 314.188 327.252 322.413 327.252Z" fill="black"/>
<path d="M327.997 306.031C331.081 306.031 333.582 303.531 333.582 300.447C333.582 297.362 331.081 294.862 327.997 294.862C324.913 294.862 322.413 297.362 322.413 300.447C322.413 303.531 324.913 306.031 327.997 306.031Z" fill="white"/>
<path d="M286.299 344.548C286.299 348.465 267.87 361.742 251.252 354.228C233.991 361.742 213.328 348.465 213.328 344.548C213.328 337.981 231.943 359.249 251.252 348.153C270.104 358.133 286.299 338.587 286.299 344.548Z" fill="black"/>
<path d="M121.743 356.664C152.585 356.664 177.588 348.33 177.588 338.049C177.588 327.768 152.585 319.434 121.743 319.434C90.9002 319.434 65.8975 327.768 65.8975 338.049C65.8975 348.33 90.9002 356.664 121.743 356.664Z" fill="#FF9595" fill-opacity="0.7"/>
<path d="M383.842 356.664C414.685 356.664 439.687 348.33 439.687 338.049C439.687 327.768 414.685 319.434 383.842 319.434C353 319.434 327.997 327.768 327.997 338.049C327.997 348.33 353 356.664 383.842 356.664Z" fill="#FF9595" fill-opacity="0.7"/>
<path d="M148.548 266.195H206.032" stroke="black" stroke-width="10"/>
<path d="M293.373 266.195H350.857" stroke="black" stroke-width="10"/>
</g>
<defs>
<linearGradient id="paint0_linear_42_255" x1="250.264" y1="78.1977" x2="250.264" y2="539.092" gradientUnits="userSpaceOnUse">
<stop stop-color="#C4FDA9"/>
<stop offset="0.31" stop-color="white"/>
<stop offset="1" stop-color="white"/>
</linearGradient>
<clipPath id="clip0_42_255">
<rect width="500" height="558.823" fill="white"/>
</clipPath>
</defs>
</svg>
