<svg width="40" height="40" viewBox="0 0 40 40" fill="none" xmlns="http://www.w3.org/2000/svg">
<path d="M11.236 9.26316L16.829 1.63158C17.2285 1.07018 17.7029 0.657895 18.2522 0.394737C18.8015 0.131579 19.3758 0 19.975 0C20.5743 0 21.1486 0.131579 21.6979 0.394737C22.2472 0.657895 22.7216 1.07018 23.1211 1.63158L28.7141 9.26316L37.2035 12.2632C38.0691 12.5439 38.7516 13.0614 39.2509 13.8158C39.7503 14.5702 40 15.4035 40 16.3158C40 16.7368 39.9417 17.1579 39.8252 17.5789C39.7087 18 39.5173 18.4035 39.2509 18.7895L33.7578 27L33.9576 35.6316C33.9908 36.8596 33.608 37.8947 32.809 38.7368C32.01 39.5789 31.0778 40 30.0125 40C29.9459 40 29.5797 39.9474 28.9139 39.8421L19.975 37.2105L11.0362 39.8421C10.8697 39.9123 10.6866 39.9561 10.4869 39.9737C10.2871 39.9912 10.104 40 9.93758 40C8.87224 40 7.94008 39.5789 7.14107 38.7368C6.34207 37.8947 5.95922 36.8596 5.99251 35.6316L6.19226 26.9474L0.749064 18.7895C0.48273 18.4035 0.291303 18 0.174782 17.5789C0.0582605 17.1579 0 16.7368 0 16.3158C0 15.4386 0.241365 14.6228 0.724095 13.8684C1.20682 13.114 1.88098 12.5789 2.74657 12.2632L11.236 9.26316ZM13.6829 12.8947L3.99501 16.2632L10.1873 25.6842L9.98752 35.7368L19.975 32.8421L29.9625 35.7895L29.7628 25.6842L35.9551 16.3684L26.2672 12.8947L19.975 4.21053L13.6829 12.8947Z" fill="#FFE072"/>
</svg>
