<svg width="150" height="165" viewBox="0 0 150 165" fill="none" xmlns="http://www.w3.org/2000/svg">
<g clip-path="url(#clip0_42_308)">
<path d="M138.859 99.3157C138.665 99.4481 138.443 99.7237 138.213 100.126C137.984 100.526 137.75 101.045 137.525 101.658C137.076 102.884 136.671 104.48 136.44 106.236C135.975 109.75 136.204 113.892 138.143 116.987C139.062 118.453 139.802 119.942 140.462 121.324C140.587 121.585 140.708 121.842 140.828 122.094C141.342 123.18 141.814 124.179 142.3 125.027C142.9 126.073 143.513 126.878 144.239 127.328C144.961 127.775 145.797 127.875 146.854 127.497C147.469 127.075 148.089 126.266 148.605 125.18C149.123 124.092 149.536 122.731 149.741 121.215C150.151 118.183 149.727 114.536 147.649 111.219C146.534 109.439 145.531 107.747 144.628 106.224L144.58 106.143C143.664 104.598 142.852 103.231 142.131 102.125C141.409 101.018 140.781 100.177 140.234 99.6832C139.959 99.4362 139.709 99.2795 139.481 99.2171C139.255 99.1554 139.05 99.1854 138.859 99.3157Z" fill="white" stroke="#BBBBBB"/>
<path d="M10.4917 100.747C10.6967 100.855 10.936 101.099 11.1908 101.464C11.4446 101.827 11.7099 102.304 11.969 102.873C12.4869 104.009 12.9776 105.505 13.2992 107.171C13.9429 110.505 13.9073 114.507 12.0709 117.666C11.2012 119.161 10.5152 120.661 9.90606 122.053C9.79114 122.315 9.67899 122.573 9.5689 122.827C9.09487 123.919 8.65871 124.924 8.20212 125.786C7.63927 126.846 7.04951 127.679 6.32814 128.179C5.61198 128.676 4.76063 128.851 3.66195 128.587C3.01153 128.239 2.33956 127.52 1.75862 126.525C1.1765 125.528 0.688505 124.259 0.406194 122.82C-0.158414 119.944 0.100427 116.399 2.06842 113.015C3.12395 111.199 4.06924 109.479 4.92018 107.93L4.9658 107.847C5.82876 106.276 6.59385 104.885 7.27877 103.754C7.96429 102.622 8.56679 101.755 9.10383 101.229C9.37234 100.966 9.62074 100.792 9.85117 100.71C10.0791 100.63 10.2903 100.64 10.4917 100.747Z" fill="white" stroke="#BBBBBB"/>
<path d="M70.1019 8.58325C71.0054 12.1512 72.9335 12.8017 75.2758 13.2485C77.2297 12.257 77.1076 8.77673 76.2041 5.2087C75.3008 1.64069 73.9581 -0.663908 72.0041 0.32756C70.0501 1.31902 69.1985 5.01522 70.1019 8.58325Z" fill="#4CAB4A"/>
<path d="M76.0611 11.6158H73.8272V20.5511H76.0611V11.6158Z" fill="#4CAB4A"/>
<path d="M81.7315 9.2908C79.7921 12.4431 76.903 13.6287 74.7764 13.223C72.2309 12.7374 73.9263 9.13155 75.8658 5.97927C77.8053 2.82698 79.8982 0.826943 81.7999 1.80754C83.7016 2.78815 83.671 6.13852 81.7315 9.2908Z" fill="#4CAB4A"/>
<path d="M33.1796 158.977C33.2182 159.719 33.5936 160.426 34.2479 161.071C34.9025 161.714 35.8339 162.293 36.977 162.774C39.2629 163.737 42.3856 164.311 45.8022 164.264C46.2917 164.257 46.7658 164.253 47.2248 164.249C48.3717 164.239 49.4242 164.23 50.3861 164.184C51.7329 164.116 52.8975 163.974 53.8902 163.647C54.8817 163.322 55.7013 162.814 56.3588 162.016C57.0169 161.217 57.5151 160.124 57.8581 158.625C58.0341 157.856 57.7698 157.139 57.1596 156.494C56.5478 155.846 55.5906 155.272 54.3919 154.798C51.9953 153.85 48.6516 153.306 45.2342 153.353C41.8176 153.4 38.7591 154.058 36.5765 155.082C35.4852 155.593 34.6153 156.195 34.0287 156.857C33.4423 157.518 33.141 158.234 33.1796 158.977Z" fill="white" stroke="#BBBBBB"/>
<path d="M116.38 159.312C116.306 160.799 114.933 162.144 112.731 163.109C110.535 164.072 107.534 164.646 104.251 164.599C103.781 164.592 103.325 164.588 102.884 164.584C101.781 164.574 100.77 164.565 99.8455 164.519C98.5513 164.452 97.4324 164.309 96.4789 163.982C95.5265 163.657 94.7392 163.149 94.1074 162.352C93.4749 161.552 92.996 160.46 92.6663 158.961C92.4968 158.191 92.7515 157.474 93.3379 156.828C93.9257 156.181 94.8453 155.607 95.9971 155.133C98.2998 154.185 101.513 153.641 104.797 153.688C108.08 153.735 111.019 154.393 113.117 155.416C115.217 156.442 116.455 157.825 116.38 159.312Z" fill="white" stroke="#BBBBBB"/>
<path d="M139.449 89.6968C143.238 117.77 135.938 135.031 123.305 145.278C110.668 155.528 92.6817 158.768 75.0792 158.768C53.93 158.768 35.8582 153.202 24.0644 141.791C12.2729 130.38 6.74792 113.118 10.7096 89.6987C16.5571 55.1328 24.5196 37.868 35.076 29.2402C45.6314 20.6134 58.7915 20.6112 75.0792 20.6112C75.7921 20.6112 76.5028 20.6101 77.2111 20.6089C91.0205 20.588 103.929 20.5685 114.62 28.5596C125.859 36.9598 134.66 54.2235 139.449 89.6968Z" fill="url(#paint0_linear_42_308)" stroke="#BBBBBB"/>
<path d="M53.2762 95.2718C55.7436 95.2718 57.7439 92.7715 57.7439 89.6873C57.7439 86.6031 55.7436 84.1028 53.2762 84.1028C50.8089 84.1028 48.8086 86.6031 48.8086 89.6873C48.8086 92.7715 50.8089 95.2718 53.2762 95.2718Z" fill="black"/>
<path d="M54.9516 88.9054C55.8769 88.9054 56.627 88.1553 56.627 87.23C56.627 86.3048 55.8769 85.5547 54.9516 85.5547C54.0263 85.5547 53.2762 86.3048 53.2762 87.23C53.2762 88.1553 54.0263 88.9054 54.9516 88.9054Z" fill="white"/>
<path d="M96.7238 95.2718C99.1911 95.2718 101.191 92.7715 101.191 89.6873C101.191 86.6031 99.1911 84.1028 96.7238 84.1028C94.2564 84.1028 92.2561 86.6031 92.2561 89.6873C92.2561 92.7715 94.2564 95.2718 96.7238 95.2718Z" fill="black"/>
<path d="M98.3991 88.9054C99.3244 88.9054 100.074 88.1553 100.074 87.23C100.074 86.3048 99.3244 85.5547 98.3991 85.5547C97.4738 85.5547 96.7238 86.3048 96.7238 87.23C96.7238 88.1553 97.4738 88.9054 98.3991 88.9054Z" fill="white"/>
<path d="M86 105.611C86 104.427 80.4439 100.412 75.4337 102.684C70.2296 100.412 64 104.427 64 105.611C64 107.597 69.6122 101.166 75.4337 104.521C81.1173 101.504 86 107.413 86 105.611Z" fill="black"/>
<path d="M36.5227 104.095C45.7754 104.095 53.2762 101.595 53.2762 98.5108C53.2762 95.4265 45.7754 92.9263 36.5227 92.9263C27.27 92.9263 19.7692 95.4265 19.7692 98.5108C19.7692 101.595 27.27 104.095 36.5227 104.095Z" fill="#FF9595"/>
<path d="M115.153 104.095C124.405 104.095 131.906 101.595 131.906 98.5108C131.906 95.4265 124.405 92.9263 115.153 92.9263C105.9 92.9263 98.3991 95.4265 98.3991 98.5108C98.3991 101.595 105.9 104.095 115.153 104.095Z" fill="#FF9595"/>
<path d="M104 104.133C104 109.03 101.953 113 99.4286 113C96.9038 113 96 109.03 96 104.133C96 99.0667 98.2857 95.2667 99.4286 94C101.6 96.1111 104 99.2364 104 104.133Z" fill="#A2D8FF"/>
<path d="M103.213 107.553C102.773 109.342 101.806 110.575 101.5 110.5C101.194 110.424 101.5 109.5 102.251 107.529C103.001 105.561 102.797 102.464 103.05 102.036C103.743 103.734 103.654 105.764 103.213 107.553Z" fill="white"/>
</g>
<defs>
<linearGradient id="paint0_linear_42_308" x1="75.0792" y1="20.5553" x2="75.0792" y2="158.824" gradientUnits="userSpaceOnUse">
<stop stop-color="#C4FDA9"/>
<stop offset="0.31" stop-color="white"/>
<stop offset="1" stop-color="white"/>
</linearGradient>
<clipPath id="clip0_42_308">
<rect width="150" height="164.743" fill="white"/>
</clipPath>
</defs>
</svg>
